<svg version="1.1" xmlns="http://www.w3.org/2000/svg" data-icon="dollar" width="20" height="20" fill="#FECB20" stroke="#FECB20" class="iconic iconic-dollar" viewBox="0 0 128 128">
  <g class="iconic-metadata">
    <title>Dollar</title>
  </g>
  <g data-width="20" data-height="32" class="iconic-container iconic-md" display="none" transform="scale(4) translate(6)">
    <path stroke="#000" stroke-width="2" class="iconic-dollar-vertical-line iconic-property-stroke" d="M10 32v-32" fill="none" />
    <path stroke="#000" stroke-width="4" d="M17 11c0-4-1.643-6.5-7-6.5-7.501 0-7 4.673-7 5.747 0 8.053 15 3.45 15 11.503 0 1.143-.501 5.75-8 5.75-5.358 0-8-2.5-8-6.5" class="iconic-dollar-s-curve iconic-property-stroke" fill="none" />
  </g>
  <g data-width="9" data-height="16" class="iconic-container iconic-sm" display="inline" transform="scale(8) translate(3)">
    <path stroke="#FECB20" class="iconic-dollar-vertical-line iconic-property-stroke" d="M4.5 16v-16" fill="#FECB20" />
    <path stroke="#FECB20" class="iconic-dollar-vertical-line iconic-property-stroke" d="M4.5 16v-16" fill="none" />
    <path stroke="#FECB20" stroke-width="2" d="M8 6c0-2-1-3-3.5-3-3.5 0-3.5 2.032-3.5 2.499 0 3.501 7 1.5 7 5.001 0 .497 0 2.5-3.5 2.5-2.5 0-3.5-1-3.5-3" class="iconic-dollar-s-curve iconic-property-stroke" fill="none" />
  </g>
</svg>