<svg version="1.1" xmlns="http://www.w3.org/2000/svg" data-icon="clipboard" width="19" height="19" fill="#FECB20" stroke="#FECB20" class="iconic iconic-clipboard" viewBox="0 0 128 128">
  <g class="iconic-metadata">
    <title>Clipboard</title>
  </g>
  <defs>
    <clipPath id="iconic-size-lg-clipboard-clip-0">
      <path d="M75.473 20c1.588 2.27 2.527 5.026 2.527 8v4h-68v-4c0-2.974.94-5.73 2.527-8h-12.527v105h88v-105h-12.527z" />
    </clipPath>
    <clipPath id="iconic-size-md-clipboard-clip-0">
      <path d="M20.444 6c.345.591.556 1.268.556 2v2h-18v-2c0-.732.212-1.409.556-2h-3.556v26h24v-26h-3.556z" />
    </clipPath>
    <clipPath id="iconic-size-sm-clipboard-clip-0">
      <path d="M11 3v2h-9v-2h-2v13h13v-13z" />
    </clipPath>
  </defs>
  <g data-width="13" data-height="16" class="iconic-container iconic-sm" display="inline" transform="scale(8) translate(1)">
    <path clip-path="url(#iconic-size-sm-clipboard-clip-0)" d="M12.75 16h-12.5c-.138 0-.25-.112-.25-.25v-12.5c0-.138.112-.25.25-.25h12.5c.138 0 .25.112.25.25v12.5c0 .138-.112.25-.25.25z" class="iconic-clipboard-board iconic-property-fill" />
    <path stroke="#FECB20" d="M7.5 3.021v-1.521c0-.552-.448-1-1-1s-1 .448-1 1v1.479" class="iconic-clipboard-clip iconic-clipboard-clip-loop iconic-property-accent iconic-property-stroke" fill="none" />
    <path d="M9 2h-5c-.55 0-1 .45-1 1v1h7v-1c0-.55-.45-1-1-1z" class="iconic-clipboard-clip iconic-clipboard-clip-base iconic-property-accent iconic-property-fill" />
  </g>
</svg>