<svg version="1.1" xmlns="http://www.w3.org/2000/svg" data-icon="person" width="25" height="25" fill="#FECB20" stroke="#FECB20" class="iconic iconic-person" viewBox="0 0 128 128">
  <g><title>Person</title></g>
  <g data-width="128" data-height="128" class="iconic-lg iconic-container" display="none">
    <g class="iconic-person-genderless">
      <path d="M87.9 80c-.8 0-2 .4-2.7.9-6.1 4.6-13.3 7.1-21.2 7.1-7.5 0-14.5-2.5-20.5-7.1-.7-.5-1.8-.9-2.7-.9h-8.8c-17.7 0-32 14.3-32 32v14.5c0 .8.7 1.5 1.5 1.5h125c.8 0 1.5-.7 1.5-1.5v-14.5c0-17.7-14.3-32-32-32h-8.1z" class="iconic-person-body iconic-property-fill"/>
      <path d="M96 35c0 22.1-10.1 45-32 45-20.1 0-32-22.9-32-45s14.3-35 32-35 32 12.9 32 35z" class="iconic-person-head iconic-property-fill"/>
    </g>
  </g>
  <g data-width="32" data-height="32" class="iconic-md iconic-container" display="inline" transform="scale(4)">
    <g class="iconic-person-genderless">
      <path d="M23.6 20c-.2 0-.6.2-.8.3-1.8 1.7-4.2 2.7-6.8 2.7s-5-1-6.8-2.7c-.2-.1-.5-.3-.8-.3h-.4c-4.4 0-8 3.6-8 8v3.5c0 .3.2.5.5.5h31c.3 0 .5-.2.5-.5v-3.5c0-4.4-3.6-8-8-8h-.4z" class="iconic-person-body iconic-property-fill"/>
      <path d="M24 9c0 5.5-2.6 11-8 11-5.5 0-8-5.5-8-11s3.6-9 8-9 8 3.5 8 9z" class="iconic-person-head iconic-property-fill"/>
    </g>
  </g>
  <g data-width="16" data-height="16" class="iconic-sm iconic-container" display="none" transform="scale(8)">
    <g class="iconic-person-genderless">
      <path d="M12.2 10c-1.1 1.2-2.6 2-4.2 2s-3.1-.8-4.2-2c-2.1.1-3.8 1.9-3.8 4v2h16v-2c0-2.1-1.7-3.9-3.8-4z" class="iconic-person-body iconic-property-fill"/>
      <ellipse cx="8" cy="5" rx="4" ry="5" class="iconic-person-head iconic-property-fill"/>
    </g>
  </g>
</svg>